<svg width="101" height="186" viewBox="0 0 101 186" fill="none" xmlns="http://www.w3.org/2000/svg">
<ellipse cx="61.2741" cy="51.8201" rx="2.81073" ry="2.80765" fill="url(#paint0_radial_23_41)"/>
<ellipse cx="61.2741" cy="81.0196" rx="2.81073" ry="2.80765" fill="url(#paint1_radial_23_41)"/>
<ellipse cx="2.81073" cy="58.5584" rx="2.81073" ry="2.80765" fill="url(#paint2_radial_23_41)"/>
<ellipse cx="2.81073" cy="104.883" rx="2.81073" ry="2.80765" fill="url(#paint3_radial_23_41)"/>
<path d="M2.81067 57.4353C3.18543 67.73 9.78129 84.501 33.1666 69.2274C56.5519 53.9539 42.9105 81.9554 33.1666 97.8654C17.9886 84.2016 -2.24865 50.3601 38.2259 24.3051C78.7005 -1.74982 95.9397 -0.776499 99.4999 2.96703C98.1883 8.95666 84.0971 25.2035 38.2259 42.274C-7.64526 59.3445 34.853 55.7507 61.8361 51.82M50.031 64.7352C30.3559 79.8965 -2.36108 108.984 24.1723 104.042C50.7056 99.1008 60.337 85.8861 61.8361 79.8965M50.031 86.0733C37.6638 98.0526 10.9056 118.417 2.81067 104.042M19.1129 97.3039C19.4084 97.4897 19.7189 97.6771 20.0441 97.8654M21.9237 98.8786C56.2146 89.7436 117.264 75.9658 87.1327 93.9347C60.2982 109.938 35.3364 105.156 23.048 99.4231C22.6605 99.2423 22.2856 99.0606 21.9237 98.8786ZM21.9237 98.8786C21.2518 98.5407 20.6246 98.2016 20.0441 97.8654M21.9237 98.8786C17.6139 106.777 11.805 130.322 23.048 161.318M20.0441 97.8654C43.5839 176.479 61.4613 188.272 67.4576 184.341" stroke="#301DAD" stroke-opacity="0.8" stroke-width="2"/>
<defs>
<radialGradient id="paint0_radial_23_41" cx="0" cy="0" r="1" gradientUnits="userSpaceOnUse" gradientTransform="translate(60.1498 52.3816) rotate(-26.5399) scale(3.77017 3.76768)">
<stop stop-opacity="0.95"/>
<stop offset="1" stop-color="#555267" stop-opacity="0.67"/>
</radialGradient>
<radialGradient id="paint1_radial_23_41" cx="0" cy="0" r="1" gradientUnits="userSpaceOnUse" gradientTransform="translate(60.1498 81.5811) rotate(-26.5399) scale(3.77017 3.76768)">
<stop stop-opacity="0.95"/>
<stop offset="1" stop-color="#555267" stop-opacity="0.67"/>
</radialGradient>
<radialGradient id="paint2_radial_23_41" cx="0" cy="0" r="1" gradientUnits="userSpaceOnUse" gradientTransform="translate(1.68644 59.1199) rotate(-26.5399) scale(3.77017 3.76768)">
<stop stop-opacity="0.95"/>
<stop offset="1" stop-color="#555267" stop-opacity="0.67"/>
</radialGradient>
<radialGradient id="paint3_radial_23_41" cx="0" cy="0" r="1" gradientUnits="userSpaceOnUse" gradientTransform="translate(1.68644 105.444) rotate(-26.5399) scale(3.77017 3.76768)">
<stop stop-opacity="0.95"/>
<stop offset="1" stop-color="#555267" stop-opacity="0.67"/>
</radialGradient>
</defs>
</svg>
